<svg width="14" height="16" viewBox="0 0 14 16" fill="none" xmlns="http://www.w3.org/2000/svg">
<g clip-path="url(#clip0_94_71)">
<path d="M3.71832 14.1131H1.10313V5.30045H3.71832V14.1131ZM2.40932 4.09832C1.57307 4.09832 0.894775 3.37351 0.894775 2.49843C0.894775 2.0781 1.05434 1.67499 1.33838 1.37777C1.62241 1.08055 2.00764 0.913574 2.40932 0.913574C2.811 0.913574 3.19624 1.08055 3.48027 1.37777C3.7643 1.67499 3.92387 2.0781 3.92387 2.49843C3.92387 3.37351 3.24529 4.09832 2.40932 4.09832ZM13.5061 14.1131H10.8966V9.82314C10.8966 8.80075 10.8769 7.48961 9.5369 7.48961C8.17721 7.48961 7.96885 8.60039 7.96885 9.74948V14.1131H5.35648V5.30045H7.86467V6.50257H7.90128C8.25042 5.81017 9.10328 5.07947 10.3757 5.07947C13.0224 5.07947 13.509 6.90328 13.509 9.27217V14.1131H13.5061Z" fill="black"/>
</g>
<defs>
<clipPath id="clip0_94_71">
<rect width="12.6142" height="15.0855" fill="white" transform="translate(0.894775 0.912109)"/>
</clipPath>
</defs>
</svg>
