<svg width="13" height="15" viewBox="0 0 13 15" fill="none" xmlns="http://www.w3.org/2000/svg">
<g clip-path="url(#clip0_94_10)">
<path d="M6.35671 4.4053C4.7265 4.4053 3.41156 5.76564 3.41156 7.45215C3.41156 9.13866 4.7265 10.499 6.35671 10.499C7.98692 10.499 9.30186 9.13866 9.30186 7.45215C9.30186 5.76564 7.98692 4.4053 6.35671 4.4053ZM6.35671 9.43301C5.30322 9.43301 4.44198 8.54467 4.44198 7.45215C4.44198 6.35963 5.30066 5.4713 6.35671 5.4713C7.41276 5.4713 8.27144 6.35963 8.27144 7.45215C8.27144 8.54467 7.4102 9.43301 6.35671 9.43301V9.43301ZM10.1093 4.28066C10.1093 4.67577 9.80169 4.99133 9.42233 4.99133C9.04041 4.99133 8.73538 4.67312 8.73538 4.28066C8.73538 3.88821 9.04297 3.57 9.42233 3.57C9.80169 3.57 10.1093 3.88821 10.1093 4.28066ZM12.0599 5.00194C12.0163 4.04996 11.8061 3.20671 11.132 2.51195C10.4604 1.81719 9.64533 1.59975 8.72513 1.55202C7.77674 1.49633 4.93412 1.49633 3.98572 1.55202C3.06809 1.5971 2.25298 1.81454 1.57885 2.5093C0.904726 3.20406 0.697105 4.04731 0.650967 4.99929C0.597139 5.98043 0.597139 8.92122 0.650967 9.90236C0.694541 10.8543 0.904726 11.6976 1.57885 12.3924C2.25298 13.0871 3.06553 13.3046 3.98572 13.3523C4.93412 13.408 7.77674 13.408 8.72513 13.3523C9.64533 13.3072 10.4604 13.0898 11.132 12.3924C11.8036 11.6976 12.0138 10.8543 12.0599 9.90236C12.1137 8.92122 12.1137 5.98309 12.0599 5.00194V5.00194ZM10.8347 10.9551C10.6347 11.4748 10.2477 11.8753 9.74273 12.0848C8.98658 12.395 7.19232 12.3234 6.35671 12.3234C5.5211 12.3234 3.72428 12.3924 2.97069 12.0848C2.46829 11.8779 2.08125 11.4775 1.87875 10.9551C1.57885 10.1728 1.64806 8.31662 1.64806 7.45215C1.64806 6.58768 1.58142 4.72881 1.87875 3.9492C2.07868 3.42945 2.46573 3.02904 2.97069 2.81955C3.72684 2.5093 5.5211 2.5809 6.35671 2.5809C7.19232 2.5809 8.98914 2.51195 9.74273 2.81955C10.2451 3.02639 10.6322 3.4268 10.8347 3.9492C11.1346 4.73146 11.0654 6.58768 11.0654 7.45215C11.0654 8.31662 11.1346 10.1755 10.8347 10.9551Z" fill="black"/>
</g>
<defs>
<clipPath id="clip0_94_10">
<rect width="11.4833" height="13.5769" fill="white" transform="translate(0.612549 0.666504)"/>
</clipPath>
</defs>
</svg>
