<svg width="15" height="16" viewBox="0 0 15 16" fill="none" xmlns="http://www.w3.org/2000/svg">
<g clip-path="url(#clip0_94_5)">
<path d="M12.3917 2.86413C11.0823 1.48478 9.33856 0.726074 7.48538 0.726074C3.66037 0.726074 0.547843 3.99722 0.547843 8.01706C0.547843 9.30116 0.866619 10.5558 1.47288 11.6626L0.488525 15.4394L4.16665 14.4246C5.17917 15.0059 6.31975 15.3114 7.48227 15.3114H7.48541C11.3073 15.3114 14.4885 12.0402 14.4885 8.02039C14.4885 6.07281 13.7011 4.24351 12.3917 2.86413ZM7.48538 14.0831C6.44788 14.0831 5.43223 13.7908 4.54785 13.239L4.33849 13.1077L2.15721 13.7086L2.73849 11.4721L2.60099 11.2422C2.02287 10.2766 1.71971 9.16327 1.71971 8.01706C1.71971 4.67698 4.30723 1.95768 7.48851 1.95768C9.0291 1.95768 10.4759 2.58825 11.5635 3.73443C12.651 4.88064 13.3198 6.40127 13.3167 8.02039C13.3167 11.3638 10.6635 14.0831 7.48538 14.0831ZM10.6479 9.54422C10.476 9.45236 9.62292 9.01214 9.46353 8.95313C9.30414 8.89069 9.18855 8.86117 9.07292 9.04508C8.9573 9.229 8.62605 9.63618 8.52287 9.76105C8.42289 9.88257 8.31975 9.89898 8.14788 9.80702C7.12913 9.27174 6.46042 8.85135 5.78853 7.63941C5.6104 7.31757 5.9667 7.34053 6.29789 6.64433C6.3542 6.52275 6.32608 6.41768 6.28225 6.32572C6.23855 6.23376 5.89165 5.33717 5.7479 4.9726C5.60729 4.61791 5.46355 4.66716 5.35727 4.66061C5.25729 4.65402 5.14161 4.65402 5.02605 4.65402C4.91039 4.65402 4.72291 4.70001 4.56353 4.88064C4.40417 5.06456 3.95726 5.50468 3.95726 6.40127C3.95726 7.29786 4.57911 8.16493 4.66351 8.28641C4.75098 8.4079 5.88541 10.2471 7.62599 11.0386C8.72603 11.5378 9.15729 11.5805 9.70731 11.4951C10.0416 11.4425 10.7323 11.055 10.876 10.6281C11.0198 10.2011 11.0198 9.83664 10.976 9.76109C10.9354 9.67888 10.8197 9.63295 10.6479 9.54422Z" fill="black"/>
</g>
<defs>
<clipPath id="clip0_94_5">
<rect width="14" height="14.7134" fill="white" transform="translate(0.488525 0.726074)"/>
</clipPath>
</defs>
</svg>
