<svg width="14" height="12" viewBox="0 0 14 12" fill="none" xmlns="http://www.w3.org/2000/svg">
<g clip-path="url(#clip0_94_15)">
<path d="M12.4855 2.82886C12.4937 2.94533 12.4937 3.06182 12.4937 3.17828C12.4937 6.73056 9.82968 10.8236 4.96056 10.8236C3.46048 10.8236 2.06697 10.3827 0.894775 9.61736C1.10791 9.6423 1.31282 9.65062 1.53415 9.65062C2.7719 9.65062 3.91132 9.22635 4.82121 8.50258C3.65721 8.47761 2.68175 7.70393 2.34566 6.63907C2.50961 6.66401 2.67355 6.68065 2.8457 6.68065C3.08341 6.68065 3.32115 6.64736 3.54246 6.58916C2.32928 6.33956 1.41937 5.25808 1.41937 3.95196V3.9187C1.77183 4.11836 2.18173 4.24315 2.61614 4.25976C1.90299 3.77724 1.43577 2.95365 1.43577 2.02189C1.43577 1.52275 1.5669 1.06519 1.79644 0.665869C3.09979 2.29643 5.05892 3.36127 7.25573 3.47776C7.21475 3.2781 7.19015 3.07014 7.19015 2.86215C7.19015 1.38132 8.37055 0.175049 9.83783 0.175049C10.6002 0.175049 11.2887 0.499497 11.7724 1.02361C12.3707 0.907144 12.9445 0.682514 13.4528 0.374711C13.256 0.998665 12.838 1.52278 12.2888 1.85552C12.8216 1.79731 13.338 1.64754 13.8134 1.43958C13.4528 1.97198 13.002 2.44616 12.4855 2.82886V2.82886Z" fill="black"/>
</g>
<defs>
<clipPath id="clip0_94_15">
<rect width="12.9187" height="11.3141" fill="white" transform="translate(0.894775 0.175049)"/>
</clipPath>
</defs>
</svg>
