<svg width="17" height="13" viewBox="0 0 17 13" fill="none" xmlns="http://www.w3.org/2000/svg">
<g clip-path="url(#clip0_94_31)">
<path d="M16.1549 2.24383C15.9709 1.52619 15.4286 0.960996 14.7401 0.76919C13.4922 0.420654 8.48795 0.420654 8.48795 0.420654C8.48795 0.420654 3.48378 0.420654 2.23578 0.76919C1.54727 0.961027 1.00501 1.52619 0.820966 2.24383C0.486572 3.54461 0.486572 6.25855 0.486572 6.25855C0.486572 6.25855 0.486572 8.97248 0.820966 10.2733C1.00501 10.9909 1.54727 11.5325 2.23578 11.7244C3.48378 12.0729 8.48795 12.0729 8.48795 12.0729C8.48795 12.0729 13.4921 12.0729 14.7401 11.7244C15.4286 11.5325 15.9709 10.9909 16.1549 10.2733C16.4893 8.97248 16.4893 6.25855 16.4893 6.25855C16.4893 6.25855 16.4893 3.54461 16.1549 2.24383V2.24383ZM6.8513 8.7226V3.79449L11.0338 6.25861L6.8513 8.7226V8.7226Z" fill="black"/>
</g>
<defs>
<clipPath id="clip0_94_31">
<rect width="16.0574" height="11.6522" fill="white" transform="translate(0.459229 0.420654)"/>
</clipPath>
</defs>
</svg>
