<svg width="75" height="75" viewBox="0 0 75 75" fill="none" xmlns="http://www.w3.org/2000/svg">
<g clip-path="url(#clip0_134_300)">
<path d="M37.499 51.4834C29.7885 51.4834 23.5156 45.2105 23.5156 37.4999C23.5156 29.7893 29.7885 23.5164 37.499 23.5164C45.2095 23.5164 51.4824 29.7893 51.4824 37.4999C51.4824 45.2105 45.2095 51.4834 37.499 51.4834ZM37.499 26.446C31.404 26.446 26.4453 31.4048 26.4453 37.4999C26.4453 43.595 31.4041 48.5538 37.499 48.5538C43.594 48.5538 48.5527 43.595 48.5527 37.4999C48.5527 31.4048 43.5941 26.446 37.499 26.446Z" fill="url(#paint0_linear_134_300)"/>
<path d="M36.5024 42.0463C36.1301 42.0463 35.7576 41.9052 35.4722 41.6226L32.3579 38.5413C31.7828 37.9724 31.7779 37.0448 32.3468 36.4697C32.9159 35.8948 33.8433 35.8898 34.4184 36.4588L36.4969 38.5153L41.6292 33.3829C42.2013 32.811 43.1288 32.811 43.701 33.3829C44.273 33.9549 44.273 34.8824 43.701 35.4546L37.5384 41.6172C37.2523 41.9033 36.8773 42.0463 36.5024 42.0463Z" fill="url(#paint1_linear_134_300)"/>
<path d="M37.498 75C37.2808 75 37.0635 74.9518 36.8628 74.8553C30.979 72.0243 25.6101 68.2938 20.9053 63.7673C18.4052 61.3629 16.0934 58.7268 14.0343 55.9326C10.9102 51.6933 9.25903 46.6611 9.25903 41.3804V12.4869C9.25903 11.678 9.91484 11.0221 10.7239 11.0221C20.6854 11.0221 30.0581 7.17085 36.4383 0.455859C36.7149 0.164795 37.0988 0 37.5003 0H37.5005C37.902 0 38.2859 0.164941 38.5625 0.456006C44.9404 7.17085 54.3122 11.0221 64.2745 11.0221C65.0835 11.0221 65.7393 11.678 65.7393 12.4869V22.1493C65.7393 22.9582 65.0835 23.6142 64.2745 23.6142C63.4654 23.6142 62.8096 22.9582 62.8096 22.1493V13.9258C53.1301 13.5836 44.0524 9.8584 37.5002 3.54316C30.9463 9.85781 21.8669 13.5832 12.1889 13.9258V41.3802C12.1889 46.0311 13.6426 50.4621 16.393 54.1944C18.3541 56.8556 20.5556 59.366 22.9366 61.656C27.2473 65.8033 32.1434 69.249 37.4983 71.9051C42.853 69.2505 47.7497 65.8047 52.0619 61.6562C54.4432 59.3657 56.6451 56.8545 58.6067 54.1919C61.3563 50.4598 62.8098 46.0291 62.8098 41.3792V35.3331C62.8098 34.524 63.4656 33.8682 64.2746 33.8682C65.0836 33.8682 65.7395 34.524 65.7395 35.3331V41.3792C65.7395 46.6589 64.0886 51.6904 60.9654 55.9296C58.9057 58.7254 56.5934 61.3624 54.0931 63.7674C49.3867 68.2956 44.0168 72.0261 38.133 74.8553C37.9323 74.9518 37.7151 75 37.498 75Z" fill="url(#paint2_linear_134_300)"/>
<path d="M64.2742 30.2059C65.0832 30.2059 65.739 29.5501 65.739 28.7411C65.739 27.9321 65.0832 27.2762 64.2742 27.2762C63.4652 27.2762 62.8093 27.9321 62.8093 28.7411C62.8093 29.5501 63.4652 30.2059 64.2742 30.2059Z" fill="url(#paint3_linear_134_300)"/>
<path d="M37.4979 68.4149C37.2556 68.4149 37.0134 68.355 36.7943 68.2348C32.489 65.877 28.5097 62.9533 24.967 59.5449C22.7048 57.3692 20.6132 54.9843 18.7505 52.4564C16.3739 49.2313 15.1177 45.4013 15.1177 41.3804V17.9686C15.1177 17.2325 15.6639 16.6105 16.394 16.5159C23.9025 15.5416 30.8883 12.6666 36.5965 8.20157C37.1267 7.78702 37.8714 7.78688 38.4017 8.20172C44.1091 12.6667 51.0945 15.5418 58.6029 16.516C59.3328 16.6107 59.8792 17.2326 59.8792 17.9687V41.3791C59.8792 45.3992 58.6232 49.2289 56.2473 52.4541C54.3838 54.9833 52.2922 57.3688 50.0303 59.5442C46.4861 62.9541 42.5062 65.878 38.2013 68.2347C37.9821 68.3549 37.7398 68.4149 37.4979 68.4149ZM18.0472 19.2377V41.3803C18.0472 44.7713 19.1059 48.0002 21.1087 50.7182C22.8734 53.113 24.8548 55.3723 26.9979 57.4335C30.1602 60.476 33.6891 63.1104 37.4979 65.2729C41.306 63.1114 44.8353 60.4769 47.999 57.4331C50.1417 55.3722 52.123 53.1124 53.8883 50.7163C55.8909 47.9982 56.9492 44.7693 56.9492 41.3791V19.2379C49.7921 18.108 43.1136 15.3468 37.4987 11.1957C31.8834 15.3468 25.2044 18.1079 18.0472 19.2377Z" fill="url(#paint4_linear_134_300)"/>
</g>
<defs>
<linearGradient id="paint0_linear_134_300" x1="37.499" y1="23.5164" x2="37.499" y2="51.4834" gradientUnits="userSpaceOnUse">
<stop stop-color="#03BAFE"/>
<stop offset="1" stop-color="#0068FF"/>
</linearGradient>
<linearGradient id="paint1_linear_134_300" x1="38.0267" y1="32.954" x2="38.0267" y2="42.0463" gradientUnits="userSpaceOnUse">
<stop stop-color="#03BAFE"/>
<stop offset="1" stop-color="#0068FF"/>
</linearGradient>
<linearGradient id="paint2_linear_134_300" x1="37.4992" y1="0" x2="37.4992" y2="75" gradientUnits="userSpaceOnUse">
<stop stop-color="#03BAFE"/>
<stop offset="1" stop-color="#0068FF"/>
</linearGradient>
<linearGradient id="paint3_linear_134_300" x1="64.2742" y1="27.2762" x2="64.2742" y2="30.2059" gradientUnits="userSpaceOnUse">
<stop stop-color="#03BAFE"/>
<stop offset="1" stop-color="#0068FF"/>
</linearGradient>
<linearGradient id="paint4_linear_134_300" x1="37.4984" y1="7.89062" x2="37.4984" y2="68.4149" gradientUnits="userSpaceOnUse">
<stop stop-color="#03BAFE"/>
<stop offset="1" stop-color="#0068FF"/>
</linearGradient>
<clipPath id="clip0_134_300">
<rect width="75" height="75" fill="white"/>
</clipPath>
</defs>
</svg>
