<svg width="75" height="75" viewBox="0 0 75 75" fill="none" xmlns="http://www.w3.org/2000/svg">
<g clip-path="url(#clip0_134_269)">
<path d="M74.9908 10.3757C74.9908 4.65452 70.3364 0 64.6153 0C59.6449 0 55.4817 3.51374 54.4741 8.18731H40.0826C38.1267 8.18731 36.2878 8.94886 34.9043 10.3319L2.15783 43.0706C0.774338 44.4538 0.0122071 46.2931 0.0122071 48.2495C0.0120606 50.206 0.773899 52.0454 2.1574 53.4289L21.5832 72.8547C22.9665 74.2379 24.8057 74.9999 26.7619 74.9999C28.7182 74.9999 30.5574 74.238 31.9407 72.8547L43.27 61.5254C43.842 60.9534 43.842 60.0259 43.27 59.4537C42.6979 58.8819 41.7707 58.8819 41.1984 59.4537L29.8691 70.783C28.1557 72.4964 25.3679 72.4964 23.6545 70.783L4.22876 51.3574C3.39866 50.5273 2.9415 49.4237 2.94164 48.2497C2.94164 47.0758 3.39881 45.9724 4.22905 45.1424L36.9757 12.4037C37.8056 11.5739 38.909 11.1169 40.0826 11.1169H54.2687C54.4436 13.6088 55.4947 15.9284 57.2784 17.7121C57.8506 18.2843 58.7779 18.2843 59.3499 17.7123C59.9221 17.1403 59.9221 16.2129 59.3501 15.6408C58.1199 14.4105 57.3733 12.8256 57.2056 11.1167H59.5094C61.9325 11.1167 63.9038 13.0881 63.9038 15.5111V34.9284C63.9038 36.1021 63.4468 37.2057 62.6167 38.0357L50.5203 50.1321C49.9483 50.7041 49.9483 51.6316 50.5203 52.2037C51.0924 52.7756 52.0197 52.7756 52.5919 52.2037L64.6883 40.1073C66.0715 38.724 66.8335 36.8848 66.8335 34.9286V20.5121C71.5571 19.4921 74.9908 15.3241 74.9908 10.3757ZM66.8334 17.4871V15.5111C66.8334 11.4727 63.5479 8.18716 59.5094 8.18716H57.498C58.435 5.14611 61.271 2.92958 64.6153 2.92958C68.7209 2.92958 72.0612 6.2699 72.0612 10.3757C72.0612 13.7053 69.8963 16.5426 66.8334 17.4871Z" fill="url(#paint0_linear_134_269)"/>
<path d="M20.2105 48.1706C20.7825 47.5986 20.7825 46.6711 20.2105 46.0989C19.6383 45.5271 18.7111 45.5271 18.1388 46.0989L14.6126 49.6251C14.0406 50.1971 14.0406 51.1246 14.6126 51.6968L23.3129 60.3972C23.599 60.6831 23.9738 60.8262 24.3486 60.8262C24.7235 60.8262 25.0983 60.6831 25.3844 60.3972C25.9564 59.8252 25.9564 58.8977 25.3844 58.3255L21.9875 54.9287L24.1979 52.7183C24.7699 52.1463 24.7699 51.2188 24.1979 50.6467C23.6258 50.0748 22.6986 50.0748 22.1263 50.6467L19.9159 52.857L17.7196 50.6607L20.2105 48.1706Z" fill="url(#paint1_linear_134_269)"/>
<path d="M37.5028 47.6753C38.2691 47.6753 38.9138 47.0794 38.9632 46.3038C39.0147 45.4964 38.402 44.8002 37.5946 44.7488L32.7521 44.44C33.1592 43.7403 33.3901 42.9485 33.4157 42.1252C33.456 40.8296 32.988 39.6258 32.0978 38.7355C30.28 36.9177 27.2647 36.9748 25.3759 38.8634L23.0639 41.1754C23.0634 41.1759 23.063 41.1764 23.0625 41.1769C23.0621 41.1773 23.0615 41.1778 23.0611 41.1782C22.4891 41.7502 22.4891 42.6777 23.0611 43.2499L31.7615 51.9501C32.0476 52.2361 32.4224 52.3792 32.7973 52.3792C33.1721 52.3792 33.5469 52.2361 33.833 51.9501C34.405 51.3781 34.405 50.4506 33.833 49.8785L31.2329 47.2785L37.4078 47.6722C37.4399 47.6743 37.4716 47.6753 37.5028 47.6753ZM27.4477 40.9349C28.1813 40.2013 29.362 40.1427 30.0263 40.807C30.3388 41.1195 30.5025 41.5549 30.4876 42.0336C30.472 42.534 30.2572 43.0266 29.8983 43.3855C29.6046 43.6792 29.0987 44.1894 28.6367 44.6559C28.1804 44.2043 27.6851 43.7132 27.4026 43.4308C27.1609 43.1892 26.6503 42.6812 26.1745 42.2079L27.4477 40.9349Z" fill="url(#paint2_linear_134_269)"/>
<path d="M51.7669 34.0148L55.4329 30.3488C56.0049 29.7768 56.0049 28.8493 55.4329 28.2772C54.8607 27.7053 53.9335 27.7053 53.3612 28.2772L50.731 30.9074L48.4524 28.6287L50.8122 26.2688C51.3842 25.6968 51.3842 24.7693 50.8122 24.1972C50.24 23.6253 49.3128 23.6253 48.7405 24.1972L46.3807 26.5571L44.1019 24.2783L46.7323 21.6481C47.3043 21.0761 47.3043 20.1486 46.7323 19.5765C46.1601 19.0046 45.2329 19.0046 44.6606 19.5765L40.9947 23.2424C40.4227 23.8144 40.4227 24.7419 40.9947 25.3141L45.3442 29.6636L45.345 29.6644C45.345 29.6644 45.3454 29.6648 45.3457 29.6651L49.6951 34.0146C49.9699 34.2893 50.3424 34.4437 50.7309 34.4437C51.1193 34.4437 51.4921 34.2894 51.7669 34.0148Z" fill="url(#paint3_linear_134_269)"/>
<path d="M42.2382 42.9393C42.6266 42.9393 42.9991 42.7849 43.2739 42.5102L46.9399 38.8443C47.5119 38.2723 47.5119 37.3448 46.9399 36.7727C46.3677 36.2008 45.4405 36.2008 44.8682 36.7727L42.238 39.4028L39.9594 37.1242L42.3195 34.7643C42.8915 34.1923 42.8915 33.2648 42.3195 32.6926C41.7475 32.1211 40.8203 32.1208 40.2478 32.6926L37.8879 35.0525L35.6093 32.7739L38.2396 30.1437C38.8116 29.5717 38.8116 28.6442 38.2396 28.0721C37.6674 27.5002 36.7402 27.5002 36.1679 28.0721L32.502 31.738C31.93 32.31 31.93 33.2375 32.502 33.8097L41.2023 42.5101C41.4771 42.7849 41.8496 42.9393 42.2382 42.9393Z" fill="url(#paint4_linear_134_269)"/>
<path d="M46.8945 54.364C46.5093 54.364 46.1313 54.5208 45.8589 54.7932C45.5866 55.0657 45.4297 55.4436 45.4297 55.8289C45.4297 56.2141 45.5864 56.592 45.8589 56.8645C46.1313 57.1368 46.5093 57.2937 46.8945 57.2937C47.2798 57.2937 47.6577 57.137 47.9302 56.8645C48.2025 56.592 48.3594 56.2141 48.3594 55.8289C48.3594 55.4436 48.2026 55.0657 47.9302 54.7932C47.6577 54.5208 47.2798 54.364 46.8945 54.364Z" fill="url(#paint5_linear_134_269)"/>
</g>
<defs>
<linearGradient id="paint0_linear_134_269" x1="37.5015" y1="0" x2="37.5015" y2="74.9999" gradientUnits="userSpaceOnUse">
<stop stop-color="#03BAFE"/>
<stop offset="1" stop-color="#0068FF"/>
</linearGradient>
<linearGradient id="paint1_linear_134_269" x1="19.9985" y1="45.67" x2="19.9985" y2="60.8262" gradientUnits="userSpaceOnUse">
<stop stop-color="#03BAFE"/>
<stop offset="1" stop-color="#0068FF"/>
</linearGradient>
<linearGradient id="paint2_linear_134_269" x1="30.7991" y1="37.4087" x2="30.7991" y2="52.3792" gradientUnits="userSpaceOnUse">
<stop stop-color="#03BAFE"/>
<stop offset="1" stop-color="#0068FF"/>
</linearGradient>
<linearGradient id="paint3_linear_134_269" x1="48.2138" y1="19.1476" x2="48.2138" y2="34.4437" gradientUnits="userSpaceOnUse">
<stop stop-color="#03BAFE"/>
<stop offset="1" stop-color="#0068FF"/>
</linearGradient>
<linearGradient id="paint4_linear_134_269" x1="39.7209" y1="27.6432" x2="39.7209" y2="42.9393" gradientUnits="userSpaceOnUse">
<stop stop-color="#03BAFE"/>
<stop offset="1" stop-color="#0068FF"/>
</linearGradient>
<linearGradient id="paint5_linear_134_269" x1="46.8945" y1="54.364" x2="46.8945" y2="57.2937" gradientUnits="userSpaceOnUse">
<stop stop-color="#03BAFE"/>
<stop offset="1" stop-color="#0068FF"/>
</linearGradient>
<clipPath id="clip0_134_269">
<rect width="75" height="75" fill="white"/>
</clipPath>
</defs>
</svg>
