<svg width="75" height="75" viewBox="0 0 75 75" fill="none" xmlns="http://www.w3.org/2000/svg">
<g clip-path="url(#clip0_134_278)">
<path d="M61.1817 29.9763H33.2425C34.5345 28.4912 35.3195 26.5541 35.3195 24.4357C35.3195 19.7742 31.5271 15.9818 26.8656 15.9818C22.204 15.9818 18.4116 19.7742 18.4116 24.4357C18.4116 26.5541 19.1966 28.4912 20.4884 29.9763H13.8191C9.78885 29.9763 6.51001 33.2551 6.51001 37.2853V45.9099C6.51001 46.7172 7.16446 47.3717 7.97182 47.3717C8.77918 47.3717 9.43363 46.7172 9.43363 45.9099V37.2853C9.43363 34.8672 11.4009 32.8999 13.8191 32.8999H54.7497C57.1678 32.8999 59.1351 34.8672 59.1351 37.2853V45.1791H43.9323C39.9021 45.1791 36.6233 48.458 36.6233 52.4882C36.6233 56.5184 39.9021 59.7972 43.9323 59.7972H59.1351V67.691C59.1351 70.1091 57.1678 72.0764 54.7497 72.0764H13.8191C11.4009 72.0764 9.43363 70.1091 9.43363 67.691V59.0549C9.43363 58.2475 8.77918 57.5931 7.97182 57.5931C7.16446 57.5931 6.51001 58.2475 6.51001 59.0549V67.691C6.51001 71.7212 9.78885 75 13.8191 75H61.1817C65.2119 75 68.4907 71.7212 68.4907 67.691V37.2853C68.4907 33.2551 65.2119 29.9763 61.1817 29.9763ZM26.8656 18.9056C29.915 18.9056 32.3959 21.3864 32.3959 24.4359C32.3959 27.4854 29.915 29.9662 26.8656 29.9662C23.8162 29.9662 21.3352 27.4854 21.3352 24.4359C21.3352 21.3864 23.8161 18.9056 26.8656 18.9056ZM60.593 32.8999H61.1817C63.5998 32.8999 65.5671 34.8672 65.5671 37.2853V45.1791H62.0587V37.2853C62.0587 35.6413 61.5128 34.1224 60.593 32.8999ZM39.5469 52.4882C39.5469 50.07 41.5142 48.1027 43.9323 48.1027H65.5671V56.8736H43.9323C41.5142 56.8736 39.5469 54.9063 39.5469 52.4882ZM61.1817 72.0764H60.593C61.5128 70.8539 62.0587 69.3352 62.0587 67.691V59.7972H65.5671V67.691C65.5671 70.1091 63.5998 72.0764 61.1817 72.0764Z" fill="url(#paint0_linear_134_278)"/>
<path d="M43.558 51.0261C43.1721 51.0261 42.7949 51.1825 42.523 51.4544C42.2511 51.7263 42.0962 52.1035 42.0962 52.4879C42.0962 52.8724 42.2511 53.2495 42.523 53.5214C42.7964 53.7933 43.1721 53.9497 43.558 53.9497C43.9425 53.9497 44.3181 53.7933 44.5915 53.5214C44.8634 53.2495 45.0198 52.8724 45.0198 52.4879C45.0198 52.1035 44.8634 51.7263 44.5915 51.4544C44.3196 51.1824 43.9425 51.0261 43.558 51.0261Z" fill="url(#paint1_linear_134_278)"/>
<path d="M48.1348 20.1234C52.7964 20.1234 56.5888 16.3311 56.5888 11.6695C56.5888 7.00809 52.7964 3.21558 48.1348 3.21558C43.4733 3.21558 39.6809 7.00795 39.6809 11.6695C39.6809 16.3311 43.4733 20.1234 48.1348 20.1234ZM48.1348 6.13934C51.1842 6.13934 53.6651 8.62018 53.6651 11.6697C53.6651 14.7191 51.1843 17.2 48.1348 17.2C45.0854 17.2 42.6045 14.7191 42.6045 11.6697C42.6045 8.62018 45.0854 6.13934 48.1348 6.13934Z" fill="url(#paint2_linear_134_278)"/>
<path d="M33.8571 14.4107C34.6644 14.4107 35.3189 13.7562 35.3189 12.9488V1.46181C35.3189 0.654452 34.6644 0 33.8571 0C33.0497 0 32.3953 0.654452 32.3953 1.46181V12.9488C32.3953 13.7562 33.0497 14.4107 33.8571 14.4107Z" fill="url(#paint3_linear_134_278)"/>
<path d="M26.8402 9.35558C27.6476 9.35558 28.302 8.70112 28.302 7.89377V1.46181C28.302 0.654452 27.6476 0 26.8402 0C26.0329 0 25.3784 0.654452 25.3784 1.46181V7.89377C25.3784 8.70112 26.0329 9.35558 26.8402 9.35558Z" fill="url(#paint4_linear_134_278)"/>
<path d="M7.97182 53.9497C8.35628 53.9497 8.73342 53.7933 9.00532 53.5214C9.27722 53.2495 9.43363 52.8724 9.43363 52.4879C9.43363 52.1035 9.27722 51.7263 9.00532 51.4544C8.73342 51.1825 8.35774 51.0261 7.97182 51.0261C7.58736 51.0261 7.21022 51.1825 6.93832 51.4544C6.66642 51.7263 6.51001 52.1035 6.51001 52.4879C6.51001 52.8724 6.66642 53.2495 6.93832 53.5214C7.21022 53.7933 7.58722 53.9497 7.97182 53.9497Z" fill="url(#paint5_linear_134_278)"/>
</g>
<defs>
<linearGradient id="paint0_linear_134_278" x1="37.5004" y1="15.9818" x2="37.5004" y2="75" gradientUnits="userSpaceOnUse">
<stop stop-color="#03BAFE"/>
<stop offset="1" stop-color="#0068FF"/>
</linearGradient>
<linearGradient id="paint1_linear_134_278" x1="43.558" y1="51.0261" x2="43.558" y2="53.9497" gradientUnits="userSpaceOnUse">
<stop stop-color="#03BAFE"/>
<stop offset="1" stop-color="#0068FF"/>
</linearGradient>
<linearGradient id="paint2_linear_134_278" x1="48.1348" y1="3.21558" x2="48.1348" y2="20.1234" gradientUnits="userSpaceOnUse">
<stop stop-color="#03BAFE"/>
<stop offset="1" stop-color="#0068FF"/>
</linearGradient>
<linearGradient id="paint3_linear_134_278" x1="33.8571" y1="0" x2="33.8571" y2="14.4107" gradientUnits="userSpaceOnUse">
<stop stop-color="#03BAFE"/>
<stop offset="1" stop-color="#0068FF"/>
</linearGradient>
<linearGradient id="paint4_linear_134_278" x1="26.8402" y1="0" x2="26.8402" y2="9.35558" gradientUnits="userSpaceOnUse">
<stop stop-color="#03BAFE"/>
<stop offset="1" stop-color="#0068FF"/>
</linearGradient>
<linearGradient id="paint5_linear_134_278" x1="7.97182" y1="51.0261" x2="7.97182" y2="53.9497" gradientUnits="userSpaceOnUse">
<stop stop-color="#03BAFE"/>
<stop offset="1" stop-color="#0068FF"/>
</linearGradient>
<clipPath id="clip0_134_278">
<rect width="75" height="75" fill="white"/>
</clipPath>
</defs>
</svg>
