<svg width="75" height="75" viewBox="0 0 75 75" fill="none" xmlns="http://www.w3.org/2000/svg">
<g clip-path="url(#clip0_134_287)">
<path d="M45.7539 53.3241C45.6907 52.276 45.2311 51.2741 44.46 50.5031L38.8961 44.9382C39.795 44.6537 40.606 44.1643 41.2667 43.5038L41.4082 43.3622C43.8602 40.9102 43.6635 36.7241 40.9698 34.0303C39.688 32.7487 38.0301 31.9855 36.3013 31.8811C34.5048 31.7725 32.8496 32.3803 31.638 33.592L31.4965 33.7335C30.8356 34.3943 30.346 35.2057 30.0617 36.1048L24.497 30.54C22.8573 28.9003 20.2883 28.8012 18.7698 30.3192L13.7265 35.3627C13.1094 35.9798 12.8527 36.8769 13.0399 37.7621C13.2435 38.7247 13.9149 39.5117 14.8358 39.8675C15.4172 40.0922 15.9444 40.4384 16.4025 40.8964L16.5623 41.0562C17.3372 41.8311 17.7977 42.8161 17.8588 43.8298C17.9161 44.7766 17.6113 45.6345 17.0007 46.245C16.3902 46.8555 15.5321 47.1611 14.5855 47.103C13.5718 47.0419 12.5867 46.5813 11.812 45.8064L11.6521 45.6466C11.1941 45.1886 10.8479 44.6614 10.6232 44.0801C10.2674 43.159 9.48037 42.4877 8.51768 42.2841C7.63247 42.0969 6.7354 42.3535 6.11812 42.9706L1.08053 48.0085C-0.437483 49.5267 -0.338606 52.0957 1.30128 53.7356L6.86592 59.3004C5.9668 59.5849 5.15543 60.0744 4.49464 60.7351L4.35299 60.8767C1.90114 63.3287 2.09786 67.5148 4.79156 70.2086C6.22168 71.6386 8.07178 72.365 9.8602 72.3647C11.4408 72.3647 12.9731 71.7972 14.1233 70.6469L14.265 70.5054C14.9258 69.8446 15.4152 69.0334 15.6996 68.134L21.2643 73.6988C22.0354 74.4698 23.0373 74.9292 24.0854 74.9926C24.1657 74.9975 24.2458 75 24.3257 75C25.3373 75 26.2981 74.6131 26.9917 73.9195L31.7886 69.1226C32.1612 70.0287 32.7097 70.8473 33.42 71.5579L33.5798 71.7177C36.2735 74.4113 40.4597 74.608 42.9117 72.1561C45.3637 69.7041 45.167 65.5179 42.4733 62.8242L42.3135 62.6644C41.603 61.954 40.7845 61.4057 39.8782 61.033L44.6808 56.2304C45.4292 55.4818 45.8203 54.4228 45.7539 53.3241ZM42.6094 54.1588L37.5661 59.2021C36.9491 59.8192 36.6923 60.7162 36.8795 61.6014C37.083 62.5641 37.7543 63.3511 38.6754 63.7071C39.2568 63.9318 39.784 64.2779 40.242 64.7361L40.4018 64.8959C41.9533 66.4474 42.15 68.7748 40.8403 70.0846C39.5307 71.3943 37.2028 71.1975 35.6517 69.6461L35.4918 69.4863C35.0338 69.0283 34.6875 68.5011 34.4628 67.9198C34.107 66.9987 33.3198 66.3274 32.3571 66.1239C31.4717 65.9367 30.5748 66.1935 29.9578 66.8105L24.9202 71.8482C24.7175 72.051 24.4506 72.0805 24.2622 72.0685C23.9342 72.0488 23.5967 71.8879 23.3362 71.6275L21.1039 69.3952L25.9651 64.534C26.5371 63.962 26.5371 63.0344 25.9651 62.4623C25.3931 61.8901 24.4655 61.8902 23.8934 62.4623L19.0322 67.3235L17.5153 65.8066C16.9606 65.2519 16.2299 64.9518 15.4935 64.9518C15.239 64.9518 14.9835 64.9878 14.7345 65.0615C13.8339 65.3282 13.1792 66.0371 12.9834 66.9577C12.8603 67.5359 12.5945 68.0325 12.1931 68.4338L12.0515 68.5753C10.7419 69.885 8.41397 69.6883 6.86285 68.1369C5.31143 66.5855 5.1147 64.258 6.42427 62.9483L6.56592 62.8066C6.96729 62.4053 7.46387 62.1394 8.04204 62.0164C8.96284 61.8205 9.67168 61.1657 9.93843 60.265C10.2252 59.2963 9.9396 58.2309 9.19326 57.4846L3.37286 51.6637C3.11227 51.4033 2.95157 51.0656 2.93165 50.7377C2.92023 50.5494 2.94938 50.2825 3.15196 50.0797L7.94888 45.2827C8.32153 46.1889 8.86997 47.0075 9.58027 47.718L9.74009 47.8779C12.4339 50.5716 16.62 50.7681 19.0721 48.3163C21.524 45.8643 21.3274 41.6782 18.6336 38.9844L18.4738 38.8246C17.7633 38.1141 16.9448 37.5658 16.0385 37.1932L20.8411 32.3905C21.2108 32.0211 21.9362 32.1222 22.4252 32.6113L28.2459 38.4318C28.9922 39.1783 30.0576 39.4638 31.0264 39.177C31.927 38.9104 32.5816 38.2014 32.7776 37.2806C32.9005 36.7026 33.1664 36.206 33.5679 35.8046L33.7096 35.663C34.3201 35.0526 35.1776 34.7479 36.1248 34.805C37.1385 34.8661 38.1236 35.3267 38.8983 36.1016C40.4497 37.6531 40.6465 39.9808 39.3368 41.2902L39.1953 41.4318C38.7939 41.8332 38.2973 42.0991 37.7193 42.2221C36.7985 42.418 36.0895 43.0726 35.8228 43.9733C35.5359 44.942 35.8214 46.0075 36.5679 46.754L42.3886 52.5747C42.6491 52.8352 42.8099 53.1727 42.8297 53.5007C42.8411 53.689 42.8121 53.9559 42.6094 54.1588Z" fill="url(#paint0_linear_134_287)"/>
<path d="M29.7219 58.7048C29.4495 58.4324 29.0715 58.2756 28.6863 58.2756C28.301 58.2756 27.9231 58.4324 27.6506 58.7048C27.3782 58.9773 27.2214 59.3552 27.2214 59.7405C27.2214 60.1257 27.3782 60.5037 27.6506 60.7761C27.9231 61.0486 28.2996 61.2053 28.6863 61.2053C29.0715 61.2053 29.4495 61.0486 29.7219 60.7761C29.9944 60.5037 30.1511 60.1257 30.1511 59.7405C30.1511 59.3552 29.9944 58.9773 29.7219 58.7048Z" fill="url(#paint1_linear_134_287)"/>
<path d="M60.8291 18.6028C60.5566 18.3303 60.1787 18.1736 59.7935 18.1736C59.4082 18.1736 59.0303 18.3303 58.7578 18.6028C58.4854 18.8752 58.3286 19.2532 58.3286 19.6384C58.3286 20.0237 58.4854 20.4016 58.7578 20.6741C59.0303 20.9465 59.4082 21.1033 59.7935 21.1033C60.1787 21.1033 60.5566 20.9465 60.8291 20.6741C61.1016 20.4016 61.2583 20.0237 61.2583 19.6384C61.2583 19.2532 61.1016 18.8752 60.8291 18.6028Z" fill="url(#paint2_linear_134_287)"/>
<path d="M71.7992 33.6667C71.0033 32.8708 70.0405 32.262 69.0054 31.8988L73.9162 26.988C74.6645 26.2398 75.0557 25.1804 74.9893 24.0818C74.926 23.0337 74.4665 22.0317 73.6954 21.2607L68.2406 15.805C69.0097 15.5113 69.709 15.0607 70.2858 14.4837L70.4275 14.3421C72.8793 11.8901 72.6828 7.70399 69.9889 5.01015C67.2954 2.3166 63.1091 2.11987 60.657 4.57172L60.5153 4.71337C59.9383 5.29052 59.4876 5.98998 59.1939 6.75931L53.7323 1.2978C52.0924 -0.342088 49.5233 -0.441112 48.005 1.07705L43.0943 5.98778C42.731 4.95273 42.1222 3.98989 41.3264 3.19404L41.1666 3.03422C38.4729 0.340528 34.2866 0.143946 31.8346 2.5958C29.3828 5.04779 29.5794 9.23402 32.2729 11.9274L32.433 12.0875C33.2287 12.8832 34.1916 13.492 35.2268 13.8554L30.3159 18.7662C28.7977 20.2843 28.8968 22.8534 30.5371 24.4937L36.3629 30.3151C37.1095 31.0616 38.1754 31.347 39.1436 31.0603C40.0442 30.7935 40.6988 30.0846 40.8948 29.1639C41.0177 28.5859 41.2836 28.0893 41.6851 27.6879L41.8268 27.5463C42.4373 26.9357 43.2966 26.6306 44.242 26.6882C45.2557 26.7494 46.2406 27.21 47.0155 27.9849C47.7904 28.7598 48.2508 29.7447 48.3121 30.7584C48.3693 31.7054 48.0645 32.5632 47.4539 33.1738L47.3124 33.3153C46.9111 33.7166 46.4145 33.9825 45.8365 34.1055C44.9157 34.3014 44.2068 34.956 43.9401 35.8566C43.6533 36.8252 43.9386 37.8904 44.6848 38.6369L50.5001 44.4567C51.3616 45.3182 52.4794 45.7544 53.5667 45.7544C54.5492 45.7544 55.5068 45.3982 56.2275 44.6775L61.1382 39.7667C61.5015 40.8016 62.1103 41.7646 62.906 42.5603L63.0659 42.7203C65.7598 45.414 69.9459 45.6106 72.3978 43.1587C74.8497 40.7067 74.6531 36.5205 71.9594 33.8268L71.7992 33.6667ZM70.3257 41.0867C69.0161 42.3964 66.6883 42.1997 65.1371 40.6483L64.9773 40.4884C64.4669 39.9782 64.0844 39.3614 63.8713 38.7047C63.5615 37.7508 62.7629 37.0127 61.787 36.7783C60.876 36.5596 59.9511 36.8098 59.313 37.4479L54.1554 42.6054C53.9526 42.8082 53.6854 42.8375 53.4974 42.8257C53.1695 42.806 52.832 42.6451 52.5718 42.385L47.0122 36.8211C47.9114 36.5366 48.7228 36.0471 49.3836 35.3864L49.5251 35.2448C50.7368 34.033 51.3444 32.3767 51.236 30.5814C51.1316 28.8525 50.3684 27.1944 49.0868 25.913C47.8052 24.6315 46.1473 23.8681 44.4184 23.7636C42.6222 23.6558 40.9666 24.2628 39.755 25.4744L39.6134 25.6161C38.9526 26.277 38.463 27.0884 38.1787 27.9875L32.6085 22.4215C32.3479 22.1611 32.1872 21.8234 32.1673 21.4955C32.1559 21.3072 32.185 21.0402 32.3876 20.8375L37.5453 15.6799C38.1834 15.0418 38.4336 14.1169 38.2149 13.2058C37.9804 12.2299 37.2422 11.4313 36.2885 11.1216C35.6319 10.9083 35.0151 10.5259 34.505 10.0158L34.3449 9.85569C32.7935 8.30428 32.5968 5.9768 33.9065 4.66708C35.2159 3.35737 37.5439 3.55395 39.0951 5.10551L39.2549 5.26532C39.7653 5.77553 40.1478 6.39237 40.361 7.04906C40.6709 8.00296 41.4695 8.7411 42.4454 8.97533C43.3563 9.19403 44.2812 8.94368 44.9193 8.30575L50.0767 3.14819C50.4465 2.7789 51.1717 2.87983 51.6608 3.36894L57.3523 9.06058C58.0737 9.78201 59.1094 10.0763 60.0547 9.82786C60.9319 9.59759 61.6011 8.93944 61.8443 8.06742C61.983 7.57054 62.2329 7.139 62.5871 6.7848L62.7287 6.64315C64.0381 5.33344 66.3661 5.53002 67.9173 7.08158C69.4688 8.63299 69.6655 10.9605 68.3558 12.2702L68.2141 12.4118C67.8599 12.7662 67.4284 13.0161 66.9316 13.1547C66.0596 13.398 65.4015 14.067 65.1712 14.9443C64.9231 15.8897 65.217 16.9252 65.9385 17.6467L71.6237 23.3319C71.8843 23.5924 72.045 23.93 72.0649 24.258C72.0763 24.4462 72.0472 24.7133 71.8444 24.916L69.4937 27.2668L64.6392 22.4122C64.067 21.8401 63.1396 21.8401 62.5676 22.4122C61.9956 22.9842 61.9954 23.9117 62.5676 24.4837L67.4221 29.3384L66.6867 30.0737C66.0488 30.7118 65.7984 31.6367 66.0171 32.5477C66.2515 33.5236 66.9897 34.3222 67.9434 34.632C68.6001 34.8453 69.2168 35.2278 69.7271 35.7381L69.887 35.8979C71.4388 37.4495 71.6354 39.7773 70.3257 41.0867Z" fill="url(#paint3_linear_134_287)"/>
</g>
<defs>
<linearGradient id="paint0_linear_134_287" x1="22.8824" y1="29.2424" x2="22.8824" y2="75" gradientUnits="userSpaceOnUse">
<stop stop-color="#03BAFE"/>
<stop offset="1" stop-color="#0068FF"/>
</linearGradient>
<linearGradient id="paint1_linear_134_287" x1="28.6863" y1="58.2756" x2="28.6863" y2="61.2053" gradientUnits="userSpaceOnUse">
<stop stop-color="#03BAFE"/>
<stop offset="1" stop-color="#0068FF"/>
</linearGradient>
<linearGradient id="paint2_linear_134_287" x1="59.7935" y1="18.1736" x2="59.7935" y2="21.1033" gradientUnits="userSpaceOnUse">
<stop stop-color="#03BAFE"/>
<stop offset="1" stop-color="#0068FF"/>
</linearGradient>
<linearGradient id="paint3_linear_134_287" x1="52.1178" y1="0.00012207" x2="52.1178" y2="45.7544" gradientUnits="userSpaceOnUse">
<stop stop-color="#03BAFE"/>
<stop offset="1" stop-color="#0068FF"/>
</linearGradient>
<clipPath id="clip0_134_287">
<rect width="75" height="75" fill="white"/>
</clipPath>
</defs>
</svg>
