<svg width="100" height="100" viewBox="0 0 100 100" fill="none" xmlns="http://www.w3.org/2000/svg">
<path d="M87.2217 0H12.7783C5.73223 0 0 5.73242 0 12.7785V87.2217C0 94.2676 5.73223 100 12.7783 100H87.2217C94.2678 100 100 94.2676 100 87.2215V12.7785C100 5.73242 94.2678 0 87.2217 0ZM94.1098 87.2217C94.1098 91.0199 91.0197 94.1098 87.2217 94.1098H12.7783C8.98008 94.1098 5.89004 91.0197 5.89004 87.2217V76.4781L25.2758 59.9838C25.9832 59.3818 27.0152 59.3762 27.7293 59.9691L39.8727 70.0527C41.0436 71.0248 42.7623 70.9451 43.8383 69.868L72.6916 40.9707C73.2131 40.4482 73.8211 40.3975 74.1385 40.4137C74.4549 40.4299 75.0555 40.5428 75.5209 41.116L94.11 64.0047L94.1098 87.2217ZM94.1098 54.6611L80.093 37.4021C78.7029 35.6904 76.6426 34.6439 74.4402 34.5309C72.2395 34.4195 70.0814 35.248 68.5234 36.8086L41.5687 63.8049L31.4926 55.4379C28.5709 53.0117 24.3514 53.0369 21.4588 55.498L5.89004 68.7445V12.7785C5.89004 8.98027 8.98008 5.89023 12.7783 5.89023H87.2217C91.0199 5.89023 94.1098 8.98027 94.1098 12.7785V54.6611Z" fill="#D1D1D1"/>
<path d="M31.2018 12C23.3707 12 17 18.3711 17 26.2018C17 34.0326 23.3709 40.4035 31.2018 40.4035C39.0326 40.4035 45.4035 34.0326 45.4035 26.2018C45.4035 18.3709 39.0328 12 31.2018 12ZM31.2018 34.5135C26.6186 34.5135 22.89 30.7848 22.89 26.2018C22.89 21.6186 26.6186 17.89 31.2018 17.89C35.785 17.89 39.5135 21.6187 39.5135 26.2018C39.5135 30.7848 35.785 34.5135 31.2018 34.5135Z" fill="#D1D1D1"/>
</svg>
